# xmcd
#
# Track frame offsets:
#	150
#	15043
#	30024
#	45178
#	60674
#	76187
#	89735
#	104798
#	121426
#	140247
#	158887
#	180304
#	197169
#	212822
#	228067
#
# Disc length: 3234 seconds
#
# Revision: 3
# Processed by: cddbd v1.5.2PL0 Copyright (c) Steve Scherf et al.
# Submitted via: EZCDAudioConverter 2.1.7.1
#
DISCID=b80ca00f
DTITLE=V/A - New Dictionary Of Blues and Soul
DYEAR=2008
DGENRE=MOJO
TTITLE0=Eli 'Paperboy' Reed and The True Loves - (Doin' The) Boom Boom
TTITLE1=Edgar 'Jones' Jones - Necessary Evil
TTITLE2=The Sugarman 3 - Chicken Half
TTITLE3=Naomi Shelton and The Gospel Queens - What Have You Done?
TTITLE4=Nicole Willis and The Soul Investigators - If This Ain't Love
TTITLE5=James Hunter - No Smoke Without Fire
TTITLE6=New Mastersounds - Return To Gijón
TTITLE7=Sharon Jones and The Dap-Kings - 100 Days, 100 Nights
TTITLE8=Watermelon Slim - Hard Times
TTITLE9=Black Keys - So He Won't Break
TTITLE10=José James - Blackeyedsusan
TTITLE11=Beth Rowley - Nobody's Fault But Mine
TTITLE12=Seasick Steve - Things Go Up
TTITLE13=Pete Molinari - I Don't Like The Man I Am
TTITLE14=Marie Knight - Let Us Get Together
EXTD=
EXTT0=
EXTT1=
EXTT2=
EXTT3=
EXTT4=
EXTT5=
EXTT6=
EXTT7=
EXTT8=
EXTT9=
EXTT10=
EXTT11=
EXTT12=
EXTT13=
EXTT14=
PLAYORDER=
